<?xml version="1.0" ?>
<!-- Uploaded to: SVG Repo, www.svgrepo.com, Generator: SVG Repo Mixer Tools -->
<svg fill="#000000" width="800px" height="800px" viewBox="0 0 64 64" xmlns="http://www.w3.org/2000/svg">
<g data-name="Layer 40" id="Layer_40">
<path d="M32,3A29,29,0,1,0,61,32,29,29,0,0,0,32,3Zm0,56A27,27,0,1,1,59,32,27,27,0,0,1,32,59ZM22,28a6,6,0,0,0,5.91-5H28a1,1,0,0,0,0-2H13a1,1,0,0,0,0,2h3.09A6,6,0,0,0,22,28Zm3.86-5a4,4,0,0,1-7.72,0ZM43.6,41.4a1,1,0,0,1-.2,1.4,1,1,0,0,1-.6.2,1,1,0,0,1-.8-.4C39.58,39.37,31.16,32,21.45,36.89a1,1,0,0,1-.9-1.78C30.33,30.22,39.69,36.19,43.6,41.4ZM51,21H35a1,1,0,0,0,0,2h4.09a6,6,0,0,0,11.82,0H51a1,1,0,0,0,0-2Zm-6,5a4,4,0,0,1-3.86-3h7.72A4,4,0,0,1,45,26Z"/>
</g>
</svg>