<?xml version="1.0" ?>
<!-- Uploaded to: SVG Repo, www.svgrepo.com, Generator: SVG Repo Mixer Tools -->
<svg fill="#000000" width="800px" height="800px" viewBox="0 0 64 64" xmlns="http://www.w3.org/2000/svg">
<g data-name="Layer 23" id="Layer_23">
<path d="M32,3A29,29,0,1,0,61,32,29,29,0,0,0,32,3Zm0,56A27,27,0,1,1,59,32,27,27,0,0,1,32,59Zm6.62-19A4,4,0,0,1,36,47a6.64,6.64,0,0,1-3.6-1.2,1,1,0,0,1,1.2-1.6A4.64,4.64,0,0,0,36,45a2,2,0,0,0,0-4,1,1,0,0,1,0-2,2,2,0,0,0,0-4,4.74,4.74,0,0,0-2.41.8,1,1,0,0,1-1.19-1.6A6.64,6.64,0,0,1,36,33a4,4,0,0,1,2.62,7Zm9.27-13.45a1,1,0,0,1-.44,1.34A.93.93,0,0,1,47,28a1,1,0,0,1-.89-.55L42,19.24l-4.11,8.21A1,1,0,0,1,37,28a.93.93,0,0,1-.45-.11,1,1,0,0,1-.44-1.34l5-10s0-.06.07-.09a.61.61,0,0,1,.12-.16l.16-.13.09-.06.07,0a1.17,1.17,0,0,1,.2-.06L42,16l.18,0a1.17,1.17,0,0,1,.2.06s0,0,.07,0,0,0,.09.07a.71.71,0,0,1,.28.28s.06.06.07.09Zm-20,0a1,1,0,0,1-.44,1.34A.93.93,0,0,1,27,28a1,1,0,0,1-.89-.55L22,19.24l-4.11,8.21A1,1,0,0,1,17,28a.93.93,0,0,1-.45-.11,1,1,0,0,1-.44-1.34l5-10s.05-.06.07-.09a.61.61,0,0,1,.12-.16l.16-.13s.06-.05.09-.06.05,0,.07,0a1.17,1.17,0,0,1,.2-.06L22,16l.18,0a1.17,1.17,0,0,1,.2.06s.05,0,.07,0,.05,0,.09.07a.71.71,0,0,1,.28.28.28.28,0,0,1,.07.09Z"/>
</g>
</svg>