<?xml version="1.0" ?>
<!-- Uploaded to: SVG Repo, www.svgrepo.com, Generator: SVG Repo Mixer Tools -->
<svg fill="#000000" width="800px" height="800px" viewBox="0 0 64 64" xmlns="http://www.w3.org/2000/svg">
<g data-name="Layer 21" id="Layer_21">
<path d="M32,3A29,29,0,1,0,61,32,29,29,0,0,0,32,3Zm0,56A27,27,0,1,1,59,32,27,27,0,0,1,32,59ZM48,34H16a1,1,0,0,0,0,2H32v5c0,4.41,3.14,8,7,8s7-3.59,7-8V36h2a1,1,0,0,0,0-2Zm-4,7c0,3.31-2.24,6-5,6s-5-2.69-5-6V36H44ZM36.11,26.55l5-10a.28.28,0,0,1,.07-.09.71.71,0,0,1,.28-.28.28.28,0,0,1,.09-.07s.05,0,.07,0a1.17,1.17,0,0,1,.2-.06L42,16l.18,0a1.17,1.17,0,0,1,.2.06s0,0,.07,0,0,0,.09.07a.71.71,0,0,1,.28.28.28.28,0,0,1,.07.09l5,10a1,1,0,0,1-.44,1.34A.93.93,0,0,1,47,28a1,1,0,0,1-.89-.55L42,19.24l-4.11,8.21A1,1,0,0,1,37,28a.93.93,0,0,1-.45-.11A1,1,0,0,1,36.11,26.55Zm-20,0,5-10a.28.28,0,0,1,.07-.09.71.71,0,0,1,.28-.28s.06-.06.09-.07.05,0,.07,0a1.17,1.17,0,0,1,.2-.06L22,16l.18,0a1.17,1.17,0,0,1,.2.06s.05,0,.07,0,.06.05.09.07a.71.71,0,0,1,.28.28.28.28,0,0,1,.07.09l5,10a1,1,0,0,1-.44,1.34A.93.93,0,0,1,27,28a1,1,0,0,1-.89-.55L22,19.24l-4.11,8.21A1,1,0,0,1,17,28a.93.93,0,0,1-.45-.11A1,1,0,0,1,16.11,26.55Z"/>
</g>
</svg>