<?xml version="1.0" ?>
<!-- Uploaded to: SVG Repo, www.svgrepo.com, Generator: SVG Repo Mixer Tools -->
<svg fill="#000000" width="800px" height="800px" viewBox="0 0 64 64" xmlns="http://www.w3.org/2000/svg">
<g data-name="Layer 22" id="Layer_22">
<path d="M32,3A29,29,0,1,0,61,32,29,29,0,0,0,32,3Zm0,56A27,27,0,1,1,59,32,27,27,0,0,1,32,59ZM42,16a6,6,0,1,0,6,6A6,6,0,0,0,42,16Zm0,10a4,4,0,1,1,4-4A4,4,0,0,1,42,26ZM22,16a6,6,0,1,0,6,6A6,6,0,0,0,22,16Zm0,10a4,4,0,1,1,4-4A4,4,0,0,1,22,26ZM38.62,40A4,4,0,0,1,36,47a6.64,6.64,0,0,1-3.6-1.2,1,1,0,0,1,1.2-1.6A4.64,4.64,0,0,0,36,45a2,2,0,0,0,0-4,1,1,0,0,1,0-2,2,2,0,0,0,0-4,4.74,4.74,0,0,0-2.41.8,1,1,0,0,1-1.19-1.6A6.64,6.64,0,0,1,36,33a4,4,0,0,1,2.62,7Z"/>
</g>
</svg>