<?xml version="1.0" ?>
<!-- Uploaded to: SVG Repo, www.svgrepo.com, Generator: SVG Repo Mixer Tools -->
<svg fill="#000000" width="800px" height="800px" viewBox="0 0 64 64" xmlns="http://www.w3.org/2000/svg">
<g data-name="Layer 14" id="Layer_14">
<path d="M32,61A29,29,0,1,1,61,32,29,29,0,0,1,32,61ZM32,5A27,27,0,1,0,59,32,27,27,0,0,0,32,5Zm7.71,34.71a1,1,0,0,0-1.42-1.42C36.49,40.1,35.59,41,32,41s-4.49-.9-6.29-2.71a1,1,0,0,0-1.42,1.42C26.4,41.81,27.79,43,32,43S37.6,41.81,39.71,39.71ZM48,22a1,1,0,0,0-2,0,4,4,0,0,1-8,0,1,1,0,0,0-2,0,6,6,0,0,0,12,0ZM28,22a1,1,0,0,0-2,0,4,4,0,0,1-8,0,1,1,0,0,0-2,0,6,6,0,0,0,12,0Z"/>
</g>
</svg>