<?xml version="1.0" ?>
<!-- Uploaded to: SVG Repo, www.svgrepo.com, Generator: SVG Repo Mixer Tools -->
<svg fill="#000000" width="800px" height="800px" viewBox="0 0 64 64" xmlns="http://www.w3.org/2000/svg">
<g data-name="Layer 29" id="Layer_29">
<path d="M32,61A29,29,0,1,1,61,32,29,29,0,0,1,32,61ZM32,5A27,27,0,1,0,59,32,27,27,0,0,0,32,5ZM42,28a6,6,0,1,1,6-6A6,6,0,0,1,42,28Zm0-10a4,4,0,1,0,4,4A4,4,0,0,0,42,18ZM22,28a6,6,0,1,1,6-6A6,6,0,0,1,22,28Zm0-10a4,4,0,1,0,4,4A4,4,0,0,0,22,18ZM32,48c-3.31,0-6-3.36-6-7.5S28.69,33,32,33s6,3.36,6,7.5S35.31,48,32,48Zm0-13c-2.21,0-4,2.47-4,5.5S29.79,46,32,46s4-2.47,4-5.5S34.21,35,32,35Z"/>
</g>
</svg>