<svg width="1921" height="1081" viewBox="0 0 1921 1081" fill="none" xmlns="http://www.w3.org/2000/svg">
<rect width="1921" height="1081" fill="#1E1E1E"/>
<g clip-path="url(#clip0_0_1)">
<rect width="1920" height="1080.21" transform="translate(0.8125 0.787048)" fill="#5232D2" fill-opacity="0.93"/>
<ellipse cx="48.1163" cy="1049.36" rx="186.062" ry="178.178" fill="white"/>
<ellipse cx="1864.06" cy="1050.18" rx="186.062" ry="178.178" fill="white"/>
<path d="M1828 237.56C1828 208.532 1851.53 185 1880.56 185H2090.8C2119.83 185 2143.36 208.532 2143.36 237.56V447.799C2143.36 476.827 2119.83 500.359 2090.8 500.359H1880.56C1851.53 500.359 1828 476.827 1828 447.799V237.56Z" fill="#24E22C"/>
<path d="M-230.451 115.367C-230.451 86.3394 -206.919 62.8076 -177.891 62.8076H32.3486C61.3766 62.8076 84.9084 86.3395 84.9084 115.368V325.607C84.9084 354.635 61.3766 378.167 32.3486 378.167H-177.891C-206.919 378.167 -230.451 354.635 -230.451 325.607V115.367Z" fill="#24E2D6"/>
<ellipse cx="-26.9381" cy="363.178" rx="186.062" ry="178.178" fill="#F9E420"/>
<ellipse cx="1864.06" cy="99.1779" rx="186.062" ry="178.178" fill="#F9E420"/>
</g>
<defs>
<clipPath id="clip0_0_1">
<rect width="1920" height="1080.21" fill="white" transform="translate(0.8125 0.787048)"/>
</clipPath>
</defs>
</svg>
