<?xml version="1.0" ?>
<!-- Uploaded to: SVG Repo, www.svgrepo.com, Generator: SVG Repo Mixer Tools -->
<svg fill="#000000" width="800px" height="800px" viewBox="0 0 64 64" xmlns="http://www.w3.org/2000/svg">
<g data-name="Layer 31" id="Layer_31">
<path d="M32,3A29,29,0,1,0,61,32,29,29,0,0,0,32,3Zm0,56A27,27,0,1,1,59,32,27,27,0,0,1,32,59ZM16.55,26.11,24.76,22l-8.21-4.11a1,1,0,1,1,.9-1.78l10,5s.06.05.09.07a1,1,0,0,1,.16.12.61.61,0,0,1,.12.16s.06.06.07.09,0,.05,0,.07a1.17,1.17,0,0,1,.06.2.82.82,0,0,1,0,.36,1.17,1.17,0,0,1-.06.2s0,.05,0,.07a.65.65,0,0,1-.1.15.21.21,0,0,0,0,.06,1.18,1.18,0,0,1-.28.22h0l-10,5A.93.93,0,0,1,17,28a1,1,0,0,1-.89-.55A1,1,0,0,1,16.55,26.11ZM36,22a1.1,1.1,0,0,1,0-.18,1.17,1.17,0,0,1,.06-.2s0-.05,0-.07,0-.05.07-.09a.61.61,0,0,1,.12-.16,1,1,0,0,1,.16-.12s.06-.06.09-.07l10-5a1,1,0,1,1,.9,1.78L39.24,22l8.21,4.11a1,1,0,0,1,.44,1.34A1,1,0,0,1,47,28a.93.93,0,0,1-.45-.11l-10-5h0a1.18,1.18,0,0,1-.28-.22l0-.06a.65.65,0,0,1-.1-.15s0-.05,0-.07a1.17,1.17,0,0,1-.06-.2A1.1,1.1,0,0,1,36,22Zm14.7,11.29a1,1,0,0,1,0,1.42l-6,6a1,1,0,0,1-1.42,0L38,35.41l-5.29,5.3a1,1,0,0,1-1.42,0L26,35.41l-5.29,5.3a1,1,0,0,1-1.42,0l-6-6a1,1,0,0,1,1.42-1.42L20,38.59l5.29-5.3a1,1,0,0,1,1.42,0L32,38.59l5.29-5.3a1,1,0,0,1,1.42,0L44,38.59l5.29-5.3A1,1,0,0,1,50.71,33.29Z"/>
</g>
</svg>