<?xml version="1.0" ?>
<!-- Uploaded to: SVG Repo, www.svgrepo.com, Generator: SVG Repo Mixer Tools -->
<svg fill="#000000" width="800px" height="800px" viewBox="0 0 64 64" xmlns="http://www.w3.org/2000/svg">
<g data-name="Layer 33" id="Layer_33">
<path d="M32,61A29,29,0,1,1,61,32,29,29,0,0,1,32,61ZM32,5A27,27,0,1,0,59,32,27,27,0,0,0,32,5ZM48.75,42.67a1,1,0,0,0-.08-1.42l-.53-.47C45.34,38.24,40.65,34,32,34s-13.34,4.24-16.14,6.78l-.53.47a1,1,0,1,0,1.34,1.5l.53-.49C19.79,39.92,24.12,36,32,36s12.21,3.92,14.8,6.26l.53.49a1,1,0,0,0,1.42-.08ZM37.45,25.39l10-5a1,1,0,1,0-.9-1.78l-10,5A1,1,0,0,0,36.11,25a1,1,0,0,0,.89.55A.93.93,0,0,0,37.45,25.39ZM27.89,25a1,1,0,0,0-.44-1.34l-10-5a1,1,0,1,0-.9,1.78l10,5a.93.93,0,0,0,.45.11A1,1,0,0,0,27.89,25Z"/>
</g>
</svg>