<?xml version="1.0" ?>
<!-- Uploaded to: SVG Repo, www.svgrepo.com, Generator: SVG Repo Mixer Tools -->
<svg fill="#000000" width="800px" height="800px" viewBox="0 0 64 64" xmlns="http://www.w3.org/2000/svg">
<g data-name="Layer 37" id="Layer_37">
<path d="M32,3A29,29,0,1,0,61,32,29,29,0,0,0,32,3Zm0,56A27,27,0,1,1,59,32,27,27,0,0,1,32,59Zm7.71-20.71a1,1,0,0,1,0,1.42C37.6,41.81,36.21,43,32,43s-5.6-1.19-7.71-3.29a1,1,0,0,1,1.42-1.42C27.51,40.1,28.41,41,32,41s4.49-.9,6.29-2.71A1,1,0,0,1,39.71,38.29Zm6-20.27,1.76-.88a1,1,0,1,0-.9-1.78l-3.38,1.69-.09,0h0l-6.25,3.13h0a.86.86,0,0,0-.26.2l-.08.09a.94.94,0,0,0-.12.22l0,.06a.43.43,0,0,1,0,.05h0a6.2,6.2,0,0,0-.31,1.9A6,6,0,1,0,45.69,18ZM42,26.75a4,4,0,0,1-4-4,4,4,0,0,1,.13-.95l5.44-2.72A4,4,0,0,1,42,26.75Zm-14-4a6.13,6.13,0,0,0-.31-1.89v0a0,0,0,0,1,0,0l0,0a.89.89,0,0,0-.14-.25l-.06-.08a1,1,0,0,0-.26-.2h0l-6.25-3.13h0l-.09,0-3.38-1.69a1,1,0,1,0-.9,1.78l1.76.88A6,6,0,1,0,28,22.75Zm-6,4a4,4,0,0,1-1.57-7.67l5.44,2.72a4,4,0,0,1,.13.95A4,4,0,0,1,22,26.75Z"/>
</g>
</svg>