<?xml version="1.0" ?>
<!-- Uploaded to: SVG Repo, www.svgrepo.com, Generator: SVG Repo Mixer Tools -->
<svg fill="#000000" width="800px" height="800px" viewBox="0 0 64 64" xmlns="http://www.w3.org/2000/svg">
<g data-name="Layer 7" id="Layer_7">
<path d="M22,28a6,6,0,1,0-6-6A6,6,0,0,0,22,28Zm0-10a4,4,0,1,1-4,4A4,4,0,0,1,22,18ZM32,3A29,29,0,1,0,61,32,29,29,0,0,0,32,3Zm0,56A27,27,0,1,1,59,32,27,27,0,0,1,32,59ZM48.75,34.33a1,1,0,0,1-.08,1.42l-.53.47C45.34,38.75,40.65,43,32,43s-13.34-4.25-16.14-6.78l-.53-.47a1,1,0,1,1,1.34-1.5l.53.49C19.79,37.08,24.12,41,32,41s12.21-3.92,14.8-6.26l.53-.49A1,1,0,0,1,48.75,34.33ZM36,22a1.1,1.1,0,0,1,0-.18,1.17,1.17,0,0,1,.06-.2s0-.05,0-.07,0-.06.07-.09a.71.71,0,0,1,.28-.28s.06-.06.09-.07l10-5a1,1,0,1,1,.9,1.78L39.24,22l8.21,4.11a1,1,0,0,1,.44,1.34A1,1,0,0,1,47,28a.93.93,0,0,1-.45-.11l-10-5h0a1.18,1.18,0,0,1-.28-.22l0-.06a.65.65,0,0,1-.1-.15s0-.05,0-.07a1.17,1.17,0,0,1-.06-.2A1.1,1.1,0,0,1,36,22Z"/>
</g>
</svg>