<?xml version="1.0" ?>
<!-- Uploaded to: SVG Repo, www.svgrepo.com, Generator: SVG Repo Mixer Tools -->
<svg fill="#000000" width="800px" height="800px" viewBox="0 0 64 64" xmlns="http://www.w3.org/2000/svg">
<g data-name="Layer 16" id="Layer_16">
<path d="M32,61A29,29,0,1,1,61,32,29,29,0,0,1,32,61ZM32,5A27,27,0,1,0,59,32,27,27,0,0,0,32,5ZM22,48a6,6,0,1,1,6-6A6,6,0,0,1,22,48Zm0-10a4,4,0,1,0,4,4A4,4,0,0,0,22,38ZM42,48a6,6,0,1,1,6-6A6,6,0,0,1,42,48Zm0-10a4,4,0,1,0,4,4A4,4,0,0,0,42,38ZM39.71,25.71a1,1,0,0,0,0-1.42C37.6,22.19,36.21,21,32,21s-5.6,1.19-7.71,3.29a1,1,0,0,0,1.42,1.42C27.51,23.9,28.41,23,32,23s4.49.9,6.29,2.71a1,1,0,0,0,1.42,0Z"/>
</g>
</svg>