<?xml version="1.0" ?>
<!-- Uploaded to: SVG Repo, www.svgrepo.com, Generator: SVG Repo Mixer Tools -->
<svg fill="#000000" width="800px" height="800px" viewBox="0 0 64 64" xmlns="http://www.w3.org/2000/svg">
<g data-name="Layer 25" id="Layer_25">
<path d="M32,3A29,29,0,1,0,61,32,29,29,0,0,0,32,3Zm0,56A27,27,0,1,1,59,32,27,27,0,0,1,32,59ZM42,28a6,6,0,1,0-6-6A6,6,0,0,0,42,28Zm0-10a4,4,0,1,1-4,4A4,4,0,0,1,42,18ZM22,28a6,6,0,1,0-6-6A6,6,0,0,0,22,28Zm0-10a4,4,0,1,1-4,4A4,4,0,0,1,22,18ZM45,29.48a1,1,0,0,0-.93.64c-.33.84-1.35,3.49-2.24,6.1A21.51,21.51,0,0,0,32,34c-8.65,0-13.34,4.25-16.14,6.78l-.53.47a1,1,0,1,0,1.34,1.5l.53-.49C19.79,39.92,24.12,36,32,36a19.51,19.51,0,0,1,9.2,2.16,15.78,15.78,0,0,0-.85,3.68,4.65,4.65,0,0,0,9.3,0c0-2.1-3.1-10.13-3.72-11.72A1,1,0,0,0,45,29.48Zm2.65,12.36a2.54,2.54,0,0,1-.2,1,2.65,2.65,0,0,1-5.1-1A13,13,0,0,1,43,39.19c.18-.6.4-1.27.64-2h0C44,36,44.53,34.58,45,33.3c.86,2.31,1.77,4.93,2.27,6.7A8.52,8.52,0,0,1,47.65,41.84Z"/>
</g>
</svg>