<?xml version="1.0" ?>
<!-- Uploaded to: SVG Repo, www.svgrepo.com, Generator: SVG Repo Mixer Tools -->
<svg fill="#000000" width="800px" height="800px" viewBox="0 0 64 64" xmlns="http://www.w3.org/2000/svg">
<g data-name="Layer 41" id="Layer_41">
<path d="M32,61A29,29,0,1,1,61,32,29,29,0,0,1,32,61ZM32,5A27,27,0,1,0,59,32,27,27,0,0,0,32,5Zm5,32a1,1,0,0,0-1-1H28a1,1,0,0,0,0,2h8A1,1,0,0,0,37,37Zm5-13a2,2,0,1,1,2-2A2,2,0,0,1,42,24Zm0-2ZM22,24a2,2,0,1,1,2-2A2,2,0,0,1,22,24Zm0-2Zm20,8a8,8,0,1,1,8-8A8,8,0,0,1,42,30Zm0-14a6,6,0,1,0,6,6A6,6,0,0,0,42,16ZM22,30a8,8,0,1,1,8-8A8,8,0,0,1,22,30Zm0-14a6,6,0,1,0,6,6A6,6,0,0,0,22,16Z"/>
</g>
</svg>