<?xml version="1.0" ?>
<!-- Uploaded to: SVG Repo, www.svgrepo.com, Generator: SVG Repo Mixer Tools -->
<svg fill="#000000" width="800px" height="800px" viewBox="0 0 64 64" xmlns="http://www.w3.org/2000/svg">
<g data-name="Layer 20" id="Layer_20">
<path d="M32,3A29,29,0,1,0,61,32,29,29,0,0,0,32,3Zm0,56A27,27,0,1,1,59,32,27,27,0,0,1,32,59ZM42,28a6,6,0,1,0-6-6A6,6,0,0,0,42,28Zm0-10a4,4,0,1,1-4,4A4,4,0,0,1,42,18ZM22,28a6,6,0,1,0-6-6A6,6,0,0,0,22,28Zm0-10a4,4,0,1,1-4,4A4,4,0,0,1,22,18ZM48,34H16a1,1,0,0,0,0,2H32v5c0,4.41,3.14,8,7,8s7-3.59,7-8V36h2a1,1,0,0,0,0-2Zm-4,7c0,3.31-2.24,6-5,6s-5-2.69-5-6V36H44Z"/>
</g>
</svg>