<?xml version="1.0" ?>
<!-- Uploaded to: SVG Repo, www.svgrepo.com, Generator: SVG Repo Mixer Tools -->
<svg fill="#000000" width="800px" height="800px" viewBox="0 0 64 64" xmlns="http://www.w3.org/2000/svg">
<g data-name="Layer 18" id="Layer_18">
<path d="M32,3A29,29,0,1,0,61,32,29,29,0,0,0,32,3Zm0,56A27,27,0,1,1,59,32,27,27,0,0,1,32,59ZM48,34H16a1,1,0,0,0,0,2H32v5c0,4.41,3.14,8,7,8s7-3.59,7-8V36h2a1,1,0,0,0,0-2Zm-4,7c0,3.31-2.24,6-5,6s-5-2.69-5-6V36H44ZM16.55,26.11,24.76,22l-8.21-4.11a1,1,0,1,1,.9-1.78l10,5a.28.28,0,0,1,.09.07.71.71,0,0,1,.28.28s.06.06.07.09,0,.05,0,.07a1.17,1.17,0,0,1,.06.2.82.82,0,0,1,0,.36,1.17,1.17,0,0,1-.06.2s0,.05,0,.07a.65.65,0,0,1-.1.15.21.21,0,0,0,0,.06,1.18,1.18,0,0,1-.28.22h0l-10,5A.93.93,0,0,1,17,28a1,1,0,0,1-.89-.55A1,1,0,0,1,16.55,26.11ZM36,22a1.1,1.1,0,0,1,0-.18,1.17,1.17,0,0,1,.06-.2s0-.05,0-.07a.28.28,0,0,1,.07-.09.71.71,0,0,1,.28-.28s.06-.06.09-.07l10-5a1,1,0,1,1,.9,1.78L39.24,22l8.21,4.11a1,1,0,0,1,.44,1.34A1,1,0,0,1,47,28a.93.93,0,0,1-.45-.11l-10-5h0a1.18,1.18,0,0,1-.28-.22l0-.06a.65.65,0,0,1-.1-.15s0-.05,0-.07a1.17,1.17,0,0,1-.06-.2A1.1,1.1,0,0,1,36,22Z"/>
</g>
</svg>